<svg xmlns="http://www.w3.org/2000/svg" viewBox="0 0 16 16">
    <path fill="#F2C55C" d="M14 4a2 2 0 0 0-2-2H4a2 2 0 0 0-2 2v8c0 1.1.9 2 2 2h8a2 2 0 0 0 2-2V4Z"/>
    <path fill="#1E1F22" d="M9.55 11.86c.33.15.7.23 1.13.23.42 0 .8-.08 1.13-.23.32-.16.58-.38.76-.65.18-.28.28-.59.28-.93a1.76 1.76 0 0 0-1.5-1.76l-1-.16a.82.82 0 0 1-.5-.26.74.74 0 0 1-.18-.5.8.8 0 0 1 .12-.44c.09-.12.2-.22.36-.29.16-.07.33-.1.54-.1.2 0 .38.03.53.1a.9.9 0 0 1 .36.3c.09.14.13.28.13.44h1.01c0-.33-.09-.63-.26-.89a1.74 1.74 0 0 0-.73-.6c-.3-.15-.66-.22-1.06-.22-.38 0-.73.08-1.04.23-.3.14-.55.35-.72.62a1.72 1.72 0 0 0-.09 1.65c.12.23.29.42.5.58.21.15.47.25.76.3l1 .18c.23.03.4.13.54.3.14.16.2.35.2.57 0 .18-.04.33-.14.47a.89.89 0 0 1-.39.31 1.4 1.4 0 0 1-.6.11 1.5 1.5 0 0 1-.61-.12 1 1 0 0 1-.41-.34.88.88 0 0 1-.15-.5H8.5a1.73 1.73 0 0 0 1.05 1.6ZM5.22 11h-1v1h1.1c.33 0 .62-.07.87-.2.26-.14.45-.34.6-.59.14-.24.21-.53.21-.85V6H6v4.22c0 .16-.03.3-.1.41a.67.67 0 0 1-.27.28.85.85 0 0 1-.4.09Z"/>
</svg>