<svg xmlns="http://www.w3.org/2000/svg" viewBox="0 0 16 16">
    <path fill="#B589EC" d="M3.99 9.78c0-.39-.12-.7-.38-.92a1.58 1.58 0 0 0-1.08-.35H2V7.43h.53c.45 0 .81-.11 1.08-.34.26-.23.39-.54.38-.93l-.03-1.58a2.29 2.29 0 0 1 1.3-2.27c.43-.2.93-.31 1.5-.31h.74v1h-.73c-.52 0-.93.15-1.24.44-.3.29-.44.67-.44 1.16l.03 1.57c.01.51-.13.93-.41 1.25-.29.32-.67.5-1.16.54.49.09.87.3 1.16.63.28.32.42.72.41 1.18l-.03 1.78c-.01.44.12.79.4 1.05s.66.4 1.13.4h.88v1h-.89c-.53 0-1-.1-1.4-.3-.4-.2-.72-.48-.94-.85a2.4 2.4 0 0 1-.31-1.28l.03-1.8Zm8.02 0c0-.39.12-.7.39-.92.26-.23.62-.35 1.07-.35H14V7.43h-.53c-.45 0-.8-.11-1.07-.34-.27-.23-.4-.54-.39-.93l.03-1.58c.01-.52-.1-.98-.33-1.37a2.24 2.24 0 0 0-.97-.9A3.35 3.35 0 0 0 9.24 2H8.5v1h.73c.52 0 .93.15 1.23.44.3.29.46.67.45 1.16l-.03 1.57c0 .51.13.93.41 1.25.29.32.67.5 1.16.54-.49.09-.87.3-1.16.63-.28.32-.42.72-.4 1.18l.02 1.78c.01.44-.12.79-.4 1.05s-.65.4-1.13.4H8.5v1h.89c.53 0 1-.1 1.4-.3.4-.2.72-.48.93-.85.22-.36.33-.79.32-1.28l-.03-1.8Z"/>
</svg>