<svg xmlns="http://www.w3.org/2000/svg" viewBox="0 0 16 16">
    <path fill="#CD669A" fill-rule="evenodd" d="M8 1a7 7 0 1 1 0 14A7 7 0 0 1 8 1Z" clip-rule="evenodd"/>
    <path fill="#fff" d="M6.6 10.33a1.8 1.8 0 0 1-.41 1.73c-.41.44-.98.6-1.22.47-.26-.16-.13-.78.34-1.28.5-.54 1.24-.88 1.24-.88l.06-.04ZM12.4 4c-.33-1.25-2.39-1.66-4.34-.96a9.8 9.8 0 0 0-3.32 1.9c-1.08 1-1.25 1.88-1.18 2.25.25 1.29 2.02 2.13 2.75 2.76-.22.1-1.79.9-2.15 1.71-.39.86.06 1.47.36 1.55a2.2 2.2 0 0 0 2.37-.96c.49-.73.45-1.67.24-2.14.29-.08.63-.11 1.07-.06 1.23.14 1.47.9 1.42 1.23a.8.8 0 0 1-.39.55c-.09.05-.11.07-.1.1 0 .07.05.06.12.05.1-.02.64-.26.67-.85.03-.75-.7-1.6-1.97-1.57-.53 0-.86.06-1.1.15a2.44 2.44 0 0 0-.05-.06C6.01 8.8 4.55 8.2 4.62 7.08c.02-.41.16-1.5 2.8-2.81 2.16-1.08 3.89-.78 4.19-.13.42.94-.93 2.69-3.17 2.94-.86.1-1.3-.24-1.42-.36-.12-.13-.13-.14-.18-.11-.07.04-.02.15 0 .22.07.17.34.48.81.64a4.3 4.3 0 0 0 2.63-.26c1.36-.53 2.42-2 2.11-3.21Z"/>
</svg>