<svg xmlns="http://www.w3.org/2000/svg" viewBox="0 0 16 16">
    <path fill="#548AF7" d="M14 4a2 2 0 0 0-2-2H4a2 2 0 0 0-2 2v8c0 1.1.9 2 2 2h8a2 2 0 0 0 2-2V4Z"/>
    <path fill="#fff" d="M3.14 6h4.73v1H6v5H5V7H3.14V6Zm7.54 6.09c-.42 0-.8-.08-1.13-.23a1.88 1.88 0 0 1-.76-.65c-.19-.28-.28-.6-.29-.96h1.02c0 .19.05.36.15.5a1 1 0 0 0 .41.35c.18.08.39.12.62.12.22 0 .42-.03.59-.1.17-.08.3-.19.4-.32.09-.14.13-.3.13-.47a.86.86 0 0 0-.73-.87l-1.01-.17c-.3-.06-.55-.16-.76-.31a1.58 1.58 0 0 1-.67-1.34c0-.33.09-.63.26-.9.17-.26.41-.47.72-.61.3-.15.66-.23 1.04-.23.4 0 .75.07 1.06.22a1.59 1.59 0 0 1 1 1.5H11.7a.74.74 0 0 0-.13-.44.84.84 0 0 0-.36-.3c-.15-.08-.33-.11-.53-.11s-.38.03-.54.1a.83.83 0 0 0-.36.3.76.76 0 0 0-.12.43c0 .2.06.36.18.5.13.14.3.23.5.26l1 .16a1.83 1.83 0 0 1 1.3.96 1.76 1.76 0 0 1-.08 1.73c-.18.27-.43.49-.76.65-.33.15-.7.23-1.13.23Z"/>
</svg>